<svg width="137" height="109" viewBox="0 0 137 109" fill="none" xmlns="http://www.w3.org/2000/svg">
<g clip-path="url(#clip0_319_2517)">
<path d="M0 81.7287L13.625 81.7373C17.4038 81.7373 20.4375 78.6951 20.4375 74.9184V27.3139H0V81.7287ZM10.2188 68.1463C12.0815 68.1463 13.625 69.6617 13.625 71.5504C13.625 73.4115 12.0815 74.9546 10.2188 74.9546C8.35596 74.9546 6.8125 73.4047 6.8125 71.5526C6.8125 69.6578 8.35596 68.1463 10.2188 68.1463ZM74.2562 13.625C72.5657 13.625 70.9224 14.2571 69.6748 15.398L48.7307 34.5522C48.7094 34.5948 48.7094 34.6373 48.6668 34.6373C45.1328 37.9584 45.1967 43.2594 48.2197 46.5592C50.9341 49.3481 56.6034 50.3103 60.1693 47.1447C60.2055 47.1127 60.2268 47.1127 60.248 47.0914L77.2538 31.5291C78.6375 30.2793 80.8197 30.3591 82.0693 31.742C83.3467 33.125 83.2402 35.2803 81.8564 36.5576L76.2957 41.6393L107.297 66.7838C107.909 67.3152 108.468 67.8474 108.973 68.432V27.0584C100.249 18.3384 88.4337 13.459 76.1031 13.459L74.2562 13.625ZM71.2332 46.2825L64.8465 52.1348C58.513 57.9063 48.8265 57.3485 43.1742 51.2043C37.4688 44.9625 37.9158 35.276 44.1322 29.5705L61.5467 13.625H60.1416C47.8365 13.625 35.9998 18.5386 27.2926 27.2287L27.25 74.895L31.1353 74.9028L50.4019 92.3215C56.2563 97.0839 64.8252 96.1791 69.562 90.3532L73.4196 93.5976C76.8003 96.1736 81.8032 95.833 84.5708 92.4542L91.2513 84.2366L92.3954 85.1942C95.3226 87.536 99.6081 87.1106 101.975 84.1834L104.006 81.6755C106.373 78.7483 105.93 74.4841 103.007 72.1103L71.2332 46.2825ZM115.812 27.3352V74.9375C115.812 78.6887 118.846 81.7607 122.433 81.7607L136.25 81.75V27.2713L115.812 27.3352ZM126.031 74.9375C124.168 74.9375 122.625 73.3949 122.625 71.5334C122.625 69.644 124.168 68.1293 126.031 68.1293C127.894 68.1293 129.438 69.6578 129.438 71.5526C129.438 73.4047 127.905 74.9375 126.031 74.9375Z" fill="white"/>
</g>
<defs>
<clipPath id="clip0_319_2517">
<rect width="136.25" height="109" fill="white"/>
</clipPath>
</defs>
</svg>
