<svg width="106" height="106" viewBox="0 0 106 106" fill="none" xmlns="http://www.w3.org/2000/svg">
<path d="M86.125 6.625H26.5C24.7429 6.625 23.0578 7.32299 21.8154 8.56542C20.573 9.80785 19.875 11.4929 19.875 13.25V26.5H13.25V33.125H19.875V49.6875H13.25V56.3125H19.875V72.875H13.25V79.5H19.875V92.75C19.875 94.5071 20.573 96.1922 21.8154 97.4346C23.0578 98.677 24.7429 99.375 26.5 99.375H86.125C87.8821 99.375 89.5672 98.677 90.8096 97.4346C92.052 96.1922 92.75 94.5071 92.75 92.75V13.25C92.75 11.4929 92.052 9.80785 90.8096 8.56542C89.5672 7.32299 87.8821 6.625 86.125 6.625ZM86.125 92.75H26.5V79.5H33.125V72.875H26.5V56.3125H33.125V49.6875H26.5V33.125H33.125V26.5H26.5V13.25H86.125V92.75Z" fill="white"/>
<path d="M46.375 26.5H72.875V33.125H46.375V26.5ZM46.375 49.6875H72.875V56.3125H46.375V49.6875ZM46.375 72.875H72.875V79.5H46.375V72.875Z" fill="white"/>
</svg>
