<svg width="106" height="106" viewBox="0 0 106 106" fill="none" xmlns="http://www.w3.org/2000/svg">
<path d="M5.3 53C7.473 54.537 10.388 55.279 13.25 55.279C16.165 55.279 19.027 54.537 21.2 53C24.486 50.562 26.5 46.799 26.5 42.4C26.5 46.799 28.461 50.562 31.8 53C33.973 54.537 36.888 55.279 39.75 55.279C42.665 55.279 45.527 54.537 47.7 53C50.986 50.562 53 46.799 53 42.4C53 46.799 54.961 50.562 58.3 53C60.473 54.537 63.388 55.279 66.303 55.279C69.165 55.279 72.027 54.537 74.2 53C77.486 50.562 79.5 46.799 79.5 42.4C79.5 46.799 81.461 50.562 84.8 53C86.973 54.537 89.888 55.279 92.75 55.279C95.665 55.279 98.527 54.537 100.7 53C104.039 50.562 106 46.799 106 42.4V37.1L90.1 0H21.2L0 37.1V42.4C0 46.799 1.961 50.562 5.3 53ZM15.9 100.647H42.4V74.147H63.6V100.647H90.1V63.547C88.139 63.282 86.284 62.381 84.8 61.268C81.461 58.883 79.5 57.399 79.5 53C79.5 57.399 77.486 58.883 74.2 61.268C72.027 62.858 69.165 63.547 66.303 63.6C63.388 63.6 60.473 62.858 58.3 61.268C54.961 58.883 53 57.399 53 53C53 57.399 50.986 58.883 47.7 61.268C45.527 62.858 42.665 63.547 39.75 63.6C36.888 63.6 33.973 62.858 31.8 61.268C28.461 58.883 26.5 57.399 26.5 52.947C26.5 57.399 24.486 58.883 21.2 61.268C19.663 62.381 17.861 63.282 15.9 63.6V100.647Z" fill="white"/>
</svg>
