<svg width="118" height="102" viewBox="0 0 118 102" fill="none" xmlns="http://www.w3.org/2000/svg">
<path d="M10.9789 58.9315C12.2851 58.2099 12.7397 56.6019 11.9936 55.3385L11.3092 54.1975L20.5184 52.5554L22.3369 55.6232V55.624C24.1372 58.6123 27.2784 60.6165 30.8295 61.0436C34.3806 61.4707 37.9352 60.2711 40.4389 57.7999C42.9417 55.3286 44.107 51.8702 43.589 48.4498L63.5425 44.903L64.936 47.2524L64.9352 47.2516C65.2646 47.9088 65.8617 48.4045 66.584 48.6201C67.3063 48.8357 68.0887 48.7522 68.7442 48.3894C69.4006 48.0266 69.8709 47.4171 70.0446 46.7058C70.2176 45.9954 70.0776 45.2475 69.6584 44.6395L43.9788 1.17269C43.1824 0.0206457 41.5995 -0.339782 40.3549 0.348425C39.1104 1.03663 38.6304 2.53796 39.2555 3.78467L40.4365 5.73472L5.62986 44.5149L5.18101 43.7623H5.18183C4.85158 43.1059 4.2545 42.6103 3.53222 42.3946C2.81077 42.179 2.02839 42.2626 1.37202 42.6254C0.716448 42.9882 0.245359 43.5976 0.0724119 44.3081C-0.100538 45.0194 0.0394692 45.7673 0.458661 46.3744L7.25975 57.9514C8.00674 59.2141 9.67128 59.6533 10.9791 58.9324L10.9789 58.9315ZM38.263 49.385C38.4862 51.1727 37.8389 52.9597 36.5113 54.2239C35.1837 55.4882 33.3241 56.0865 31.4768 55.8446C29.6295 55.6035 28.0022 54.5485 27.0707 52.989L26.1969 51.5752L38.263 49.385ZM62.7978 19.6378C62.4017 18.9679 62.2971 18.1731 62.5079 17.4283C62.7179 16.6837 63.226 16.0511 63.9195 15.6684L72.8692 10.7301V10.7293C73.5635 10.2973 74.4109 10.1588 75.2139 10.3482C76.0161 10.5367 76.7037 11.0364 77.1139 11.7294C77.524 12.4215 77.622 13.2466 77.384 14.0112C77.146 14.7757 76.5942 15.4114 75.8563 15.7711L66.895 20.7779C66.1949 21.1526 65.3697 21.2433 64.6013 21.0293C63.8329 20.8153 63.1839 20.3148 62.7977 19.6378L62.7978 19.6378ZM57.8506 13.6953H57.8514C56.6967 12.6746 56.5567 10.9648 57.5319 9.78249L64.1196 1.79853H64.1204C64.6039 1.17953 65.3261 0.774578 66.1225 0.677506C66.9189 0.579645 67.7227 0.797643 68.3502 1.28137C68.9786 1.76431 69.3772 2.47321 69.4571 3.24494C69.5361 4.0167 69.2891 4.78684 68.7719 5.3803L62.1841 13.3643C61.6702 13.9841 60.9142 14.3723 60.0939 14.4367H59.8699C59.1279 14.4471 58.408 14.1917 57.8513 13.7175L57.8506 13.6953ZM65.6202 26.7888C65.4555 26.013 65.6293 25.2063 66.1012 24.5587C66.5723 23.9111 67.2995 23.4798 68.1107 23.3676L78.5362 21.9188C80.1669 21.6952 81.6758 22.7908 81.9071 24.3654C82.1385 25.9399 81.0044 27.3984 79.3745 27.6218L68.9136 29.0587H68.5001H68.501C67.1108 29.042 65.9165 28.1016 65.6201 26.7887L65.6202 26.7888ZM30.2001 101.029C29.2661 101.052 28.3627 100.707 27.6956 100.075C27.0285 99.4436 26.6546 98.5787 26.6579 97.6766V86.0081C26.6579 85.1218 27.0219 84.2721 27.6709 83.645C28.3198 83.018 29.1994 82.6664 30.117 82.6664H39.4917C40.4092 82.6664 41.2887 83.0181 41.9378 83.645C42.5868 84.272 42.9508 85.1217 42.9508 86.0081V97.6766C42.9508 98.5629 42.5868 99.4126 41.9378 100.04C41.2888 100.667 40.4093 101.018 39.4917 101.018L30.2001 101.029ZM53.4235 101.029C52.5052 101.029 51.6256 100.678 50.9767 100.051C50.3286 99.4237 49.9637 98.574 49.9637 97.6876V82.0958C49.9637 81.2095 50.3286 80.359 50.9767 79.7328C51.6257 79.1058 52.5053 78.7534 53.4235 78.7534H62.7982H62.7974C63.7149 78.7534 64.5952 79.1058 65.2435 79.7328C65.8925 80.3589 66.2573 81.2094 66.2573 82.0958V97.6764C66.2573 98.5627 65.8925 99.4124 65.2435 100.039C64.5953 100.666 63.7149 101.018 62.7974 101.018L53.4235 101.029ZM89.434 73.2456V97.6767C89.434 98.563 89.0699 99.4127 88.421 100.04C87.772 100.667 86.8924 101.018 85.9749 101.018H76.5885C75.6711 101.018 74.7907 100.667 74.1424 100.04C73.4935 99.4128 73.1286 98.5631 73.1286 97.6767V73.2456C73.1286 72.3593 73.4935 71.5096 74.1424 70.8825C74.7906 70.2556 75.671 69.9039 76.5885 69.9039H85.9633C86.8824 69.9007 87.7653 70.2516 88.4168 70.8785C89.0682 71.5055 89.4339 72.3568 89.4339 73.2455L89.434 73.2456ZM112.657 56.6609V97.6083C112.658 98.5018 112.296 99.3602 111.649 99.9999C111.003 100.639 110.123 101.009 109.198 101.029H99.8591C98.9342 101.009 98.0546 100.64 97.4081 99.9999C96.7616 99.3602 96.3992 98.5017 96.4001 97.6083V56.6609C96.3992 55.7675 96.7616 54.909 97.4081 54.2693C98.0546 53.6305 98.9342 53.2605 99.8591 53.2398H109.186C110.113 53.2573 110.996 53.6257 111.645 54.2654C112.294 54.9051 112.657 55.7659 112.657 56.661L112.657 56.6609ZM116.943 34.9896C117.133 35.8744 116.951 36.7949 116.441 37.5515C115.93 38.3073 115.131 38.838 114.216 39.0274C113.299 39.2167 112.341 39.0472 111.553 38.5556C110.765 38.0639 110.211 37.2897 110.013 36.4043L108.572 29.9025C102.168 39.9638 93.8987 48.7991 84.1788 55.9651C75.9333 61.9752 66.7125 66.624 56.8926 69.7205C47.9025 72.6276 38.4973 74.1631 29.0182 74.2714C27.4246 74.2714 26.48 74.2142 26.3853 74.203C25.1203 74.1155 23.9987 73.3828 23.4453 72.28C22.891 71.1773 22.9873 69.8734 23.6989 68.858C24.4096 67.8428 25.6277 67.2724 26.8935 67.3599H28.8651C37.6986 67.2382 46.4607 65.7989 54.8399 63.0939C74.8173 56.7067 90.8504 44.2967 102.516 26.1854L95.9743 27.6223C94.7686 27.8077 93.548 27.3804 92.746 26.4902C91.9439 25.5999 91.6729 24.3737 92.0295 23.2448C92.3861 22.1158 93.3192 21.2446 94.4986 20.9383L109.529 17.8363C110.446 17.6461 111.404 17.8164 112.192 18.3081C112.98 18.7998 113.534 19.5739 113.732 20.4593L116.943 34.9896Z" fill="white"/>
</svg>
