<svg width="90" height="126" viewBox="0 0 90 126" fill="none" xmlns="http://www.w3.org/2000/svg">
<path d="M20.9064 97.3372C19.4776 97.3372 18.3087 98.509 18.3087 99.9413V106.478C18.3087 110.985 21.9459 114.657 26.4412 114.657H31.8193C32.91 120.544 38.0804 125.024 44.2905 125.024C50.4744 125.024 55.6437 120.543 56.7355 114.657H62.1397C66.6348 114.657 70.2722 110.985 70.2722 106.478V99.9413C70.2722 98.509 69.1033 97.3372 67.6745 97.3372H20.9064Z" fill="white"/>
<path d="M39.1924 25.2457C41.0257 25.2457 42.5164 23.7502 42.5164 21.9113C42.5164 20.0746 41.0256 18.5791 39.1924 18.5791C37.3591 18.5791 35.8673 20.0747 35.8673 21.9113C35.8684 23.7502 37.3603 25.2457 39.1924 25.2457Z" fill="white"/>
<path d="M42.0736 65.6948C40.2403 65.6948 38.7485 67.1904 38.7485 69.027C38.7485 70.8638 40.2404 72.3592 42.0736 72.3592C43.9069 72.3592 45.3976 70.8637 45.3976 69.027C45.3976 67.1903 43.9068 65.6948 42.0736 65.6948Z" fill="white"/>
<path d="M75.2077 77.0748C84.0415 68.6878 89.1078 56.8639 89.1078 44.6485C89.1078 43.6326 89.0556 42.6951 88.9784 41.7316C87.5234 18.3171 68.0376 0.00713011 44.6037 0.00713011C43.8763 -0.0190314 43.1749 0.0332916 42.4996 0.0594531C20.1823 1.02306 1.6046 19.2543 0.123685 41.5746C0.0704025 41.834 0.0703993 42.0161 0.0703993 42.0684C-0.65706 55.1427 4.2796 67.8277 13.6581 76.8387C15.5806 78.6875 17.1661 80.7717 18.3611 83.0642C19.8682 85.9811 20.699 89.0028 20.8295 92.1279H68.2439C68.3733 88.9503 69.2051 85.9287 70.6861 83.0642C71.83 80.8753 73.3882 78.7921 75.2074 77.0731L75.2077 77.0748ZM39.198 13.3692C43.9011 13.3692 47.7197 17.1975 47.7197 21.9119C47.7197 26.6265 43.9008 30.4546 39.198 30.4546C34.4953 30.4546 30.6764 26.6263 30.6764 21.9119C30.6764 17.1972 34.4953 13.3692 39.198 13.3692ZM21.3488 46.6019C20.6997 46.6019 20.0244 46.3414 19.5307 45.8465C18.5173 44.8306 18.5173 43.1639 19.5307 42.1479L22.7787 38.8919L19.5307 35.6107C18.5173 34.5948 18.5173 32.9543 19.5307 31.9384C20.5442 30.9225 22.1807 30.9224 23.1941 31.9384L26.4682 35.2206L29.7162 31.9384C30.7296 30.9224 32.3661 30.9224 33.4057 31.9384C34.4191 32.9543 34.4191 34.5948 33.4057 35.6107L30.1315 38.8919L33.4057 42.1479C34.4191 43.1638 34.4191 44.8306 33.4057 45.8465C32.8859 46.3414 32.2107 46.6019 31.5615 46.6019C30.8863 46.6019 30.236 46.3414 29.7173 45.8465L26.4693 42.5643L23.1952 45.8465C22.6993 46.3425 22.0241 46.6019 21.3488 46.6019ZM29.0649 68.8708C29.0649 70.3032 27.896 71.475 26.4672 71.475C25.0122 71.475 23.8694 70.3032 23.8694 68.8708C23.8694 58.1403 32.5729 49.4154 43.2508 49.4154C51.0974 49.4154 57.4629 43.0342 57.4629 35.1682V28.2146L54.2149 31.4707C53.2015 32.4866 51.565 32.4866 50.5516 31.4707C49.5381 30.4809 49.512 28.8142 50.5516 27.7983L58.2153 20.0631C58.6829 19.5944 59.3331 19.3077 60.0595 19.3077C60.787 19.3077 61.4361 19.5944 61.9037 20.0893L69.5936 27.7982C70.607 28.8142 70.607 30.4809 69.5675 31.4706C69.0738 31.9917 68.3986 32.2522 67.7494 32.2522C67.0742 32.2522 66.4239 31.9917 65.9052 31.4706L62.6572 28.2146V35.1681C62.6572 45.8986 53.9538 54.6236 43.2497 54.6236C35.4304 54.6247 29.0649 61.0048 29.0649 68.8708L29.0649 68.8708ZM42.0819 77.5707C37.3789 77.5707 33.5603 73.7423 33.5603 69.028C33.5603 64.3133 37.3792 60.4852 42.0819 60.4852C46.7588 60.4852 50.6036 64.3136 50.6036 69.028C50.6036 73.7415 46.7588 77.5707 42.0819 77.5707ZM69.5958 64.5215C70.6093 65.5374 70.6093 67.1779 69.5958 68.1938C69.0761 68.6887 68.4008 68.9493 67.7516 68.9493C67.0764 68.9493 66.4261 68.6887 65.9074 68.1938L62.6595 64.9127L59.3853 68.1938C58.8916 68.6887 58.2164 68.9493 57.5411 68.9493C56.8919 68.9493 56.2156 68.6887 55.7219 68.1938C54.7085 67.1779 54.7085 65.5374 55.7219 64.5215L58.9699 61.2392L55.7219 57.9832C54.7085 56.9673 54.7085 55.3006 55.7219 54.2846C56.7353 53.2686 58.3718 53.2687 59.3852 54.2846L62.6594 57.5668L65.9074 54.2846C66.9208 53.2687 68.5573 53.2687 69.5969 54.2846C70.6103 55.3005 70.6103 56.9672 69.5969 57.9832L66.3227 61.2392L69.5958 64.5215Z" fill="white"/>
</svg>
