<svg width="159" height="158" viewBox="0 0 159 158" fill="none" xmlns="http://www.w3.org/2000/svg">
<path d="M62.895 59.3645C67.4171 58.5131 71.9993 58.0194 76.6005 57.8857V42.1614C73.6161 42.3631 70.6672 42.926 67.8198 43.8371C65.7093 48.855 64.0605 54.0521 62.895 59.3645V59.3645Z" fill="white"/>
<path d="M42.3452 76.1759H55.5383C55.628 72.8842 55.8878 69.5985 56.3166 66.3337C51.7141 67.6682 47.2404 69.4039 42.9463 71.5216C42.6452 73.0578 42.4444 74.6128 42.3452 76.1759H42.3452Z" fill="white"/>
<path d="M95.6229 98.2408C91.0914 99.0945 86.4996 99.5893 81.8901 99.7218V115.444C84.8887 115.24 87.8507 114.672 90.7099 113.752C92.8168 108.74 94.4607 103.548 95.6229 98.2407V98.2408Z" fill="white"/>
<path d="M61.8307 92.6541C66.688 93.7013 71.6318 94.3087 76.6004 94.4658V81.4292H60.8281C60.9285 85.1877 61.2627 88.9367 61.8308 92.6541L61.8307 92.6541Z" fill="white"/>
<path d="M81.8907 81.4294V94.4661C86.8663 94.3089 91.817 93.7015 96.6816 92.6484C97.2473 88.9334 97.5804 85.1857 97.676 81.4295L81.8907 81.4294Z" fill="white"/>
<path d="M55.5361 81.4294H42.343C42.4422 82.9926 42.643 84.5477 42.9442 86.0838C47.2382 88.2016 51.7119 89.9372 56.3144 91.2716C55.8857 88.0069 55.6259 84.7212 55.5361 81.4294H55.5361Z" fill="white"/>
<path d="M60.9901 46.843C53.8096 50.8982 48.1904 57.2081 45.0171 64.7814C48.9771 63.1033 53.0562 61.7208 57.2227 60.6443C58.1285 55.9572 59.3887 51.344 60.9901 46.843Z" fill="white"/>
<path d="M67.82 113.767C70.6674 114.678 73.6164 115.241 76.6008 115.443V99.7211C71.9995 99.5862 67.4173 99.0902 62.8953 98.24C64.0609 103.552 65.7096 108.75 67.82 113.767V113.767Z" fill="white"/>
<path d="M45.021 92.8252C48.1943 100.398 53.8123 106.708 60.9916 110.764C59.3902 106.263 58.13 101.65 57.2242 96.9623C53.0589 95.8846 48.9807 94.502 45.021 92.8252Z" fill="white"/>
<path d="M60.827 76.1758H76.5993V63.1392C71.6307 63.2963 66.6872 63.9037 61.8296 64.9509C61.2615 68.6684 60.9273 72.4173 60.8269 76.1759L60.827 76.1758Z" fill="white"/>
<path d="M97.3977 46.7798C99.0228 51.297 100.302 55.9291 101.225 60.636C105.406 61.7125 109.499 63.0986 113.471 64.7836C110.284 57.172 104.627 50.8347 97.3977 46.7795V46.7798Z" fill="white"/>
<path d="M101.292 96.953C100.391 101.634 99.1363 106.242 97.5385 110.737C104.7 106.683 110.304 100.382 113.469 92.824C109.519 94.4974 105.448 95.8776 101.292 96.953Z" fill="white"/>
<path d="M115.547 86.0826C115.848 84.5464 116.049 82.9914 116.148 81.4282H102.965C102.882 84.7188 102.625 88.0021 102.2 91.2659C106.794 89.9302 111.26 88.1957 115.547 86.0826H115.547Z" fill="white"/>
<path d="M81.8907 42.1629V57.8872C86.4802 58.0197 91.0518 58.5123 95.5621 59.3613C94.3728 54.0327 92.6946 48.8226 90.5524 43.7975C87.7416 42.9087 84.834 42.3598 81.8911 42.1628L81.8907 42.1629Z" fill="white"/>
<path d="M81.8907 76.1758H97.6654C97.558 72.4164 97.2143 68.6659 96.6392 64.9488C91.7888 63.9016 86.8522 63.2965 81.8909 63.1394L81.8907 76.1758Z" fill="white"/>
<path d="M115.547 71.5227C111.248 69.4025 106.767 67.6645 102.159 66.3289C102.592 69.596 102.857 72.8829 102.953 76.177H116.143H116.142C116.045 74.6139 115.847 73.06 115.547 71.5227H115.547Z" fill="white"/>
<path d="M109.204 146.087L111.346 150.889C113 150.165 114.658 149.366 116.27 148.525L113.799 143.881C112.293 144.664 110.748 145.406 109.204 146.087V146.087Z" fill="white"/>
<path d="M89.6305 151.635L90.3627 156.836C92.159 156.586 93.9708 156.27 95.7491 155.901L94.6567 150.76C93.0009 151.105 91.3074 151.401 89.6304 151.635L89.6305 151.635Z" fill="white"/>
<path d="M68.5518 156.897C70.3504 157.137 72.181 157.321 73.9902 157.438L74.3362 152.185C72.6426 152.074 70.9337 151.907 69.2542 151.683L68.5518 156.897Z" fill="white"/>
<path d="M14.0406 43.865L9.38733 41.3672C8.52519 42.9433 7.70795 44.5896 6.95093 46.235L11.7705 48.4103C12.472 46.8776 13.2373 45.3497 14.0403 43.8649L14.0406 43.865Z" fill="white"/>
<path d="M47.5303 151.062C49.2073 151.786 50.9222 152.459 52.6228 153.063L54.3979 148.112C52.8106 147.553 51.2233 146.926 49.6361 146.244L47.5303 151.062Z" fill="white"/>
<path d="M11.0443 107.547C10.3782 105.992 9.7617 104.395 9.21372 102.819L4.21338 104.531C4.80033 106.223 5.45934 107.927 6.17385 109.596L11.0443 107.547Z" fill="white"/>
<path d="M5.29088 82.9905L0 83.2825C0.100385 85.0895 0.264544 86.9071 0.492475 88.6909L5.74073 88.0389C5.53878 86.3737 5.38524 84.6733 5.29076 82.9907L5.29088 82.9905Z" fill="white"/>
<path d="M6.92664 62.8197L1.75971 61.6846C1.36761 63.4494 1.03223 65.2495 0.762939 67.0297L5.99607 67.8177C6.24645 66.1478 6.55942 64.4687 6.9267 62.8199L6.92664 62.8197Z" fill="white"/>
<path d="M21.0457 120.831C16.8354 120.831 12.7989 122.492 9.82151 125.447C6.84538 128.403 5.1731 132.411 5.1731 136.592C5.1731 140.772 6.84538 144.78 9.82151 147.737C12.7988 150.692 16.8354 152.352 21.0457 152.352C25.2561 152.352 29.2926 150.692 32.27 147.737C35.2461 144.78 36.9184 140.772 36.9184 136.592C36.9137 132.414 35.2402 128.406 32.2651 125.451C29.289 122.498 25.2537 120.836 21.0457 120.831ZM23.6912 133.965C25.1521 133.965 26.3366 135.141 26.3366 136.592C26.3366 138.042 25.1521 139.219 23.6912 139.219H18.1098C18.1629 139.31 18.1865 139.416 18.2444 139.505C19.2246 140.967 20.8768 141.845 22.6461 141.845H23.6913C25.1522 141.845 26.3367 143.022 26.3367 144.472C26.3367 145.923 25.1522 147.099 23.6913 147.099H22.6461C18.8657 147.099 15.3722 145.096 13.4826 141.845C11.5918 138.595 11.5918 134.589 13.4826 131.338C15.3722 128.088 18.8657 126.085 22.6461 126.085H23.6913C25.1522 126.085 26.3367 127.261 26.3367 128.711C26.3367 130.162 25.1522 131.338 23.6913 131.338H22.6461C20.8769 131.338 19.2249 132.217 18.2444 133.679C18.1865 133.768 18.1629 133.874 18.1098 133.965L23.6912 133.965Z" fill="white"/>
<path d="M153.318 21.0134C153.318 16.8327 151.645 12.8247 148.669 9.86831C145.692 6.91317 141.655 5.25269 137.445 5.25269C133.235 5.25269 129.198 6.91317 126.221 9.86831C123.245 12.8246 121.572 16.8327 121.572 21.0134C121.572 25.194 123.245 29.202 126.221 32.1584C129.198 35.1136 133.235 36.7741 137.445 36.7741C141.653 36.7694 145.688 35.1077 148.664 32.1536C151.639 29.1985 153.313 25.1916 153.318 21.0134ZM130.972 31.2578C129.663 30.6093 129.133 29.0309 129.786 27.7328C130.439 26.4347 132.029 25.907 133.336 26.5555L135.704 27.7328C136.801 28.2734 138.091 28.2734 139.188 27.7328C139.743 27.4584 140.093 26.8955 140.093 26.2799C140.093 25.6643 139.743 25.1025 139.188 24.827L133.338 21.9375H133.339C131.797 21.1718 130.6 19.8631 129.978 18.2669C129.356 16.6709 129.356 14.9013 129.978 13.3055C130.6 11.7095 131.797 10.4008 133.339 9.63398C135.922 8.36162 138.956 8.36162 141.54 9.63398L143.921 10.8078V10.809C145.229 11.4575 145.759 13.0347 145.106 14.334C144.453 15.6321 142.863 16.1587 141.556 15.5102L139.188 14.3328V14.334C138.091 13.7922 136.801 13.7922 135.704 14.334C135.149 14.6084 134.799 15.1713 134.799 15.7857C134.799 16.4014 135.149 16.9643 135.704 17.2387L141.554 20.1281C143.095 20.8939 144.292 22.2038 144.915 23.7996C145.536 25.3956 145.536 27.164 144.915 28.7611C144.292 30.3571 143.095 31.6658 141.554 32.4317C138.97 33.7029 135.937 33.7029 133.353 32.4317L130.972 31.2578Z" fill="white"/>
<path d="M148.761 40.7578L144.13 43.2955H144.128C152.02 57.5281 154.945 73.9552 152.449 90.0131C149.952 106.07 142.174 120.856 130.327 132.063L133.978 135.867H133.979C146.671 123.857 155.004 108.016 157.678 90.8123C160.353 73.6079 157.218 56.0097 148.762 40.7593L148.761 40.7578Z" fill="white"/>
<path d="M21.7742 24.4577L25.6054 28.0779V28.0767C36.8934 16.3159 51.7835 8.59407 67.9536 6.11499C84.1238 3.63597 100.666 6.53951 115 14.373L117.556 9.77627C102.198 1.37988 84.4742 -1.73233 67.1473 0.922672C49.8207 3.57878 33.8661 11.8543 21.7727 24.458L21.7742 24.4577Z" fill="white"/>
</svg>
