<svg width="163" height="117" viewBox="0 0 163 117" fill="none" xmlns="http://www.w3.org/2000/svg">
<path d="M157.111 43.2H144.803C143.567 39.604 140.328 37 136.5 37C132.672 37 129.433 39.604 128.197 43.2H115.889C115.477 43.2 115.094 43.231 114.711 43.324C113.773 43.5311 112.897 43.9752 112.159 44.6178C111.42 45.2604 110.841 46.0824 110.471 47.013C110.177 47.726 110 48.532 110 49.4V92.8C110 93.637 110.177 94.474 110.471 95.218C110.766 95.962 111.207 96.613 111.737 97.202C112.532 98.039 113.563 98.659 114.711 98.907C115.094 98.969 115.477 99 115.889 99H157.111C160.35 99 163 96.21 163 92.8V49.4C163 45.99 160.35 43.2 157.111 43.2ZM133.556 77.827L129.404 82.229L118.833 71.1L129.404 59.971L133.556 64.373L127.166 71.1L133.556 77.827ZM136.5 47.075C135.293 47.075 134.292 46.021 134.292 44.75C134.292 43.479 135.293 42.425 136.5 42.425C137.707 42.425 138.708 43.479 138.708 44.75C138.708 46.021 137.707 47.075 136.5 47.075ZM143.596 82.229L139.444 77.827L145.834 71.1L139.444 64.373L143.596 59.971L154.167 71.1L143.596 82.229Z" fill="white"/>
<path d="M43.7793 108.212H84.2278C85.1794 108.212 85.8145 107.57 85.8145 106.767V63.4186C85.8145 62.2942 84.5454 61.6525 83.4356 62.1341C82.3236 62.4555 80.8963 62.7769 79.3109 62.7769C75.0278 62.7769 71.3798 61.3322 69.4766 58.7631C68.8426 57.9601 67.4142 57.9601 66.7802 58.7631C65.0342 61.3311 61.3862 62.7769 57.1032 62.7769C52.8201 62.7769 49.1721 61.3322 47.2689 58.7631C46.6349 57.9601 45.2065 57.9601 44.5725 58.7631C42.8276 61.3311 39.1796 62.7769 34.8965 62.7769C30.6135 62.7769 26.9655 61.3322 25.0623 58.7631C24.4283 57.9601 22.9999 57.9601 22.3659 58.7631C20.6199 61.3311 16.9719 62.7769 12.6888 62.7769C11.1021 62.7769 9.6747 62.4555 8.40573 61.9739C7.29484 61.4923 6.02686 62.2953 6.02686 63.2585V106.607C6.02686 107.41 6.82019 108.052 7.61353 108.052H13.7998C14.7513 108.052 15.3864 107.41 15.3864 106.607V72.4099C15.3864 71.6069 16.1798 70.9652 16.9731 70.9652H40.2905C41.2421 70.9652 41.8772 71.6069 41.8772 72.4099V106.607C42.1925 107.41 42.9858 108.212 43.7792 108.212H43.7793ZM50.917 72.4092C50.917 71.6062 51.7103 70.9645 52.5037 70.9645H75.8211C76.7726 70.9645 77.4077 71.6062 77.4077 72.4092V93.1197C77.4077 93.9227 76.6144 94.5644 75.8211 94.5644L52.5037 94.5655C51.5521 94.5655 50.917 93.9238 50.917 93.1208V72.4092Z" fill="white"/>
<path d="M12.0551 61.1704C18.083 61.4918 23.1584 57.3169 23.7934 52.0185H23.9516C24.4274 57.1567 29.1861 61.1704 35.0549 61.1704C40.7652 61.1704 45.5242 57.1567 46.1581 52.0185H46.3163C46.7921 57.1567 51.5508 61.1704 57.4196 61.1704C63.1299 61.1704 67.8889 57.1567 68.5228 52.0185H68.681C69.1568 57.3166 74.3914 61.4907 80.4193 61.1704C86.288 60.849 90.8886 56.0322 90.8886 50.7352L90.8897 41.9046C90.8897 39.4968 89.7788 38.5325 88.3515 38.5325H4.1234C2.69606 38.5325 1.58521 39.6569 1.58521 40.9403V50.7339C1.58521 56.0321 6.02661 60.8489 12.0545 61.1703L12.0551 61.1704Z" fill="white"/>
<path d="M88.8279 110.138H3.17215C1.42726 110.138 0 111.583 0 113.349C0 115.115 1.42734 116.56 3.17215 116.56H88.8279C90.5727 116.56 92 115.115 92 113.349C92 111.583 90.5727 110.138 88.8279 110.138Z" fill="white"/>
<path d="M5.39277 36.7667H86.4484C88.1933 36.7667 89.3031 35.0006 88.5109 33.7159L79.7864 18.1425C79.3106 17.3395 78.5173 17.0181 77.724 17.0181H65.034C63.9231 7.38448 55.8339 0 45.9996 0C36.1654 0 28.0751 7.54589 26.9653 17.0181H14.1172C13.1657 17.0181 12.3724 17.4997 12.0548 18.1425L3.33035 33.7159C2.53701 35.1618 3.6479 36.7667 5.39277 36.7667ZM46.793 32.1113C46.793 32.5929 46.4755 32.9143 45.9997 32.9143C45.5239 32.9143 45.2064 32.5929 45.2064 32.1113V20.7116C45.2064 20.23 45.5239 19.9086 45.9997 19.9086C46.4755 19.9086 46.793 20.23 46.793 20.7116V32.1113ZM65.9857 20.3914L69.3173 31.791C69.4755 32.2726 69.1591 32.594 68.8415 32.7542H68.6833C68.3657 32.7542 68.0493 32.594 67.89 32.1125L64.4003 21.033C64.2421 20.5515 64.5585 20.0699 65.0343 19.9086C65.5101 19.7485 65.8276 20.0699 65.9859 20.3913L65.9857 20.3914ZM45.9996 6.42258C52.3439 6.42258 57.5787 11.078 58.6897 17.0192H33.3096C34.4205 10.918 39.6551 6.42258 45.9996 6.42258ZM22.6822 31.9499L26.0139 20.5502C26.1721 20.0686 26.6479 19.9085 26.9654 20.0686C27.4412 20.2288 27.5994 20.7103 27.4412 21.0318L24.1096 32.4314C23.9514 32.7529 23.6338 33.0732 23.3163 33.0732H23.158C22.8405 32.7529 22.524 32.4326 22.6823 31.9499H22.6822Z" fill="white"/>
<path d="M55.8346 90.2301C55.9929 90.3902 56.1522 90.5515 56.4687 90.5515C56.6269 90.5515 56.7862 90.5515 56.9444 90.3913L72.6483 76.584C72.9658 76.2626 72.9658 75.781 72.6483 75.4596C72.3307 75.1382 71.8549 75.1382 71.5374 75.4596L55.8335 89.2669C55.5182 89.4271 55.5182 89.9087 55.8346 90.2301V90.2301Z" fill="white"/>
<path d="M55.0415 82.0421C55.1997 82.0421 55.359 82.0421 55.5173 81.882L63.6067 74.6575C63.9242 74.336 63.9242 73.8545 63.6067 73.5331C63.2891 73.2116 62.8134 73.2116 62.4958 73.5331L54.4064 80.7576C54.0888 81.079 54.0888 81.5605 54.4064 81.882C54.5646 81.8808 54.7239 82.0421 55.0415 82.0421Z" fill="white"/>
<path d="M64.7172 91.1936C64.3996 91.1936 64.3996 91.8353 64.7172 92.1567C64.8754 92.3169 65.0347 92.4781 65.3512 92.4781C65.5094 92.4781 65.6687 92.4781 65.827 92.318L73.9164 85.0935C74.2339 84.7721 74.2339 84.2905 73.9164 83.9691C73.5988 83.6477 73.123 83.6477 72.8055 83.9691L64.7172 91.1936Z" fill="white"/>
<path d="M22.9998 90.2299C22.9998 91.7373 21.7926 92.9592 20.3034 92.9592C18.8141 92.9592 17.6069 91.7373 17.6069 90.2299C17.6069 88.7225 18.8141 87.5007 20.3034 87.5007C21.7926 87.5007 22.9998 88.7225 22.9998 90.2299Z" fill="white"/>
</svg>
