<svg width="130" height="122" viewBox="0 0 130 122" fill="none" xmlns="http://www.w3.org/2000/svg">
<path d="M3.08071 0C1.3786 0 0 1.4693 0 3.28071C0 5.09332 1.37973 6.56142 3.08071 6.56142H19.0639L35.2878 88.1764C35.681 90.1927 36.9458 91.8886 38.5137 91.8681H115.538C117.166 91.8933 118.663 90.321 118.663 88.5874C118.663 86.8538 117.166 85.2815 115.538 85.3067H41.017L24.6009 2.56387C24.2957 1.11402 22.9632 -0.0120111 21.5686 0.000585572L3.08071 0ZM33.8906 19.6857L37.8857 41.0126H63.1594V19.6857H33.8906ZM69.3219 19.6857V41.0126H93.9704V19.6857H69.3219ZM100.132 19.6857V41.0126H124.732L129.402 19.6857H100.132ZM39.1365 47.574L43.1316 68.9008H63.1583V47.574H39.1365ZM69.3219 47.574V68.9008H93.9704V47.574H69.3219ZM100.132 47.574V68.9008H118.617L123.288 47.574H100.132ZM53.917 98.4296C47.9619 98.4296 43.1338 103.571 43.1338 109.913C43.1338 116.254 47.9619 121.396 53.917 121.396C59.8721 121.396 64.7002 116.254 64.7002 109.913C64.7002 103.571 59.8721 98.4296 53.917 98.4296ZM100.132 98.4296C94.1767 98.4296 89.3486 103.571 89.3486 109.913C89.3486 116.254 94.1767 121.396 100.132 121.396C106.087 121.396 110.915 116.254 110.915 109.913C110.915 103.571 106.087 98.4296 100.132 98.4296Z" fill="white"/>
</svg>
