<svg width="133" height="106" viewBox="0 0 133 106" fill="none" xmlns="http://www.w3.org/2000/svg">
<g clip-path="url(#clip0_319_2272)">
<path d="M129.188 72.875H125.875V50.4949C125.875 47.8656 124.819 45.3398 122.956 43.4766L102.273 22.7941C100.41 20.9309 97.8844 19.875 95.2551 19.875H86.125V9.9375C86.125 4.45117 81.6738 0 76.1875 0H23.1875C17.7012 0 13.25 4.45117 13.25 9.9375V19.875H1.65625C0.745312 19.875 0 20.6203 0 21.5312V24.8438C0 25.7547 0.745312 26.5 1.65625 26.5H57.9688C58.8797 26.5 59.625 27.2453 59.625 28.1562V31.4688C59.625 32.3797 58.8797 33.125 57.9688 33.125H8.28125C7.37031 33.125 6.625 33.8703 6.625 34.7812V38.0938C6.625 39.0047 7.37031 39.75 8.28125 39.75H51.3438C52.2547 39.75 53 40.4953 53 41.4062V44.7188C53 45.6297 52.2547 46.375 51.3438 46.375H1.65625C0.745312 46.375 0 47.1203 0 48.0312V51.3438C0 52.2547 0.745312 53 1.65625 53H44.7188C45.6297 53 46.375 53.7453 46.375 54.6562V57.9688C46.375 58.8797 45.6297 59.625 44.7188 59.625H13.25V86.125C13.25 97.0977 22.1523 106 33.125 106C44.0977 106 53 97.0977 53 86.125H79.5C79.5 97.0977 88.4023 106 99.375 106C110.348 106 119.25 97.0977 119.25 86.125H129.188C131.009 86.125 132.5 84.6344 132.5 82.8125V76.1875C132.5 74.3656 131.009 72.875 129.188 72.875ZM33.125 96.0625C27.6387 96.0625 23.1875 91.6113 23.1875 86.125C23.1875 80.6387 27.6387 76.1875 33.125 76.1875C38.6113 76.1875 43.0625 80.6387 43.0625 86.125C43.0625 91.6113 38.6113 96.0625 33.125 96.0625ZM99.375 96.0625C93.8887 96.0625 89.4375 91.6113 89.4375 86.125C89.4375 80.6387 93.8887 76.1875 99.375 76.1875C104.861 76.1875 109.312 80.6387 109.312 86.125C109.312 91.6113 104.861 96.0625 99.375 96.0625ZM115.938 53H86.125V29.8125H95.2551L115.938 50.4949V53Z" fill="white"/>
</g>
<defs>
<clipPath id="clip0_319_2272">
<rect width="132.5" height="106" fill="white"/>
</clipPath>
</defs>
</svg>
